<svg width="169" height="22" viewBox="0 0 169 22" fill="none" xmlns="http://www.w3.org/2000/svg">
<path d="M57.8353 18.5176V21.8118H45.7883V18.5176H49.8118V3.29412H45.7883V0H53.8589V18.5176H57.8353Z" fill="black"/>
<path d="M72.2588 18.5176V21.8118H60.2117V18.5176H64.2117V3.29412H60.2117V0H68.2823V18.5176H72.2588Z" fill="black"/>
<path d="M77.0823 21.8118V9.10588H73.247V5.81176H77.0823V4.51765C77.0823 1.57647 78.6117 0 81.7646 0H86.3058V3.22353H82.4235C81.4352 3.22353 81.0352 3.64706 81.0352 4.61176V5.78823H86.3058V9.08235H81.0823V21.7882H77.0823V21.8118Z" fill="black"/>
<path d="M95.7411 5.62354C90.8705 5.62354 87.5764 8.91765 87.5764 13.8118C87.5764 18.7294 90.8705 22 95.7411 22C100.635 22 103.929 18.7294 103.929 13.8118C103.929 8.91765 100.635 5.62354 95.7411 5.62354ZM95.7411 18.6824C93.2941 18.6824 91.6941 16.6588 91.6941 13.8118C91.6941 10.9882 93.2941 8.94118 95.7411 8.94118C98.2117 8.94118 99.8117 10.9647 99.8117 13.8118C99.8117 16.6588 98.2117 18.6824 95.7411 18.6824Z" fill="black"/>
<path d="M117.459 5.81177H121.482V21.8118H117.553V19.8588C116.541 21.0588 115.129 22 112.894 22C109.647 22 106.706 20.3294 106.706 14.8471V5.81177H110.729V14.5412C110.729 17.2 111.694 18.6824 113.906 18.6824C116.118 18.6824 117.459 17.0588 117.459 14.1647V5.81177V5.81177Z" fill="black"/>
<path d="M155.176 0V7.74118C154.165 6.49412 152.588 5.62353 150.423 5.62353C146.212 5.62353 142.965 8.84706 142.965 13.7882C142.965 18.8941 146.094 22 150.353 22C152.682 22 154.259 20.8941 155.294 19.5059V21.8118H159.223V0H155.176V0ZM151.153 18.6824C148.659 18.6824 147.059 16.6824 147.059 13.8118C147.059 10.9647 148.659 8.94118 151.153 8.94118C153.623 8.94118 155.223 10.9412 155.223 13.8353C155.223 16.7059 153.623 18.6824 151.153 18.6824Z" fill="black"/>
<path d="M4.96471 21.8118L0 5.81177H4.61177L7.55294 17.3176L10.7294 5.81177H15.3647L18.5412 17.3176L21.4824 5.81177H26.0941L21.0588 21.8118H16.1412L13.0353 10.2588L9.90588 21.8118H4.96471Z" fill="black"/>
<path d="M165.812 22C167.293 22 168.494 20.799 168.494 19.3176C168.494 17.8362 167.293 16.6353 165.812 16.6353C164.33 16.6353 163.129 17.8362 163.129 19.3176C163.129 20.799 164.33 22 165.812 22Z" fill="#EC2E3A"/>
<path d="M165.812 10.9882C167.293 10.9882 168.494 9.78731 168.494 8.30589C168.494 6.82447 167.293 5.62354 165.812 5.62354C164.33 5.62354 163.129 6.82447 163.129 8.30589C163.129 9.78731 164.33 10.9882 165.812 10.9882Z" fill="#EC2E3A"/>
<path d="M43.4118 14.7529C43.4824 14.2588 43.5294 13.6706 43.5294 13.2941C43.4824 8.58824 40.3294 5.62354 35.6706 5.62354C30.8706 5.62354 27.6706 8.8706 27.6706 13.8353C27.6706 18.7765 30.8236 22 35.953 22C40.0941 22 42.8 19.5294 43.2941 16.4H39.3177C38.9177 18 37.6235 18.8706 35.7883 18.8706C33.4824 18.8706 31.953 17.3412 31.8588 14.9177V14.7529H43.4118ZM35.6706 8.68236C37.6941 8.68236 39.0824 9.81177 39.4353 11.8824H31.9765C32.2588 9.90589 33.7647 8.68236 35.6706 8.68236Z" fill="black"/>
<path d="M129.435 21.8118H125.412V5.81177H129.341V7.76471C130.353 6.56471 131.765 5.62354 134 5.62354C137.247 5.62354 140.188 7.29413 140.188 12.7765V21.8118H136.165V13.0824C136.165 10.4235 135.2 8.94118 132.988 8.94118C130.776 8.94118 129.435 10.5647 129.435 13.4588V21.8118V21.8118Z" fill="black"/>
</svg>
